<svg xmlns="http://www.w3.org/2000/svg" width="400" height="400">
  <path d="M200,150,206.0042048421224,154.39353637680472,212.94095225512604,151.7037086855466,217.60343788879413,157.50154150448083,225,156.69872981077808,228.00302573440115,163.5057463466032,235.35533905932738,164.64466094067262,236.4942536533968,171.99697426559885,243.30127018922195,175,242.49845849551917,182.39656211120587,248.2962913144534,187.05904774487396,245.60646362319528,193.99579515787764,250,200,245.60646362319528,206.00420484212236,248.2962913144534,212.94095225512604,242.49845849551917,217.60343788879413,243.30127018922195,225,236.4942536533968,228.00302573440115,235.35533905932738,235.35533905932738,228.00302573440115,236.4942536533968,225,243.30127018922192,217.60343788879413,242.49845849551917,212.94095225512604,248.2962913144534,206.0042048421224,245.60646362319528,200,250,193.99579515787764,245.60646362319528,187.05904774487396,248.2962913144534,182.39656211120587,242.49845849551917,175,243.30127018922195,171.99697426559885,236.4942536533968,164.64466094067262,235.35533905932738,163.5057463466032,228.00302573440115,156.69872981077805,225,157.50154150448083,217.60343788879413,151.7037086855466,212.94095225512606,154.39353637680472,206.00420484212236,150,200,154.39353637680472,193.99579515787764,151.7037086855466,187.059047744874,157.5015415044808,182.3965621112059,156.69872981077808,175,163.5057463466032,171.99697426559885,164.64466094067262,164.64466094067262,171.99697426559885,163.5057463466032,174.99999999999997,156.69872981077808,182.39656211120587,157.5015415044808,187.05904774487396,151.7037086855466,193.99579515787764,154.39353637680472Z" fill="orange" stroke="black"/>
</svg>
